<svg xmlns="http://www.w3.org/2000/svg" version="1.1" xmlns:xlink="http://www.w3.org/1999/xlink" xmlns:svgjs="http://svgjs.dev/svgjs" width="1000" height="148" viewBox="0 0 1000 148"><g transform="matrix(1,0,0,1,-0.6060425979336515,-0.2188889816602284)"><svg viewBox="0 0 396 59" data-background-color="#ffffff" preserveAspectRatio="xMidYMid meet" height="148" width="1000" xmlns="http://www.w3.org/2000/svg" xmlns:xlink="http://www.w3.org/1999/xlink"><g id="tight-bounds" transform="matrix(1,0,0,1,0.23999317596064884,0.08725979674292716)"><svg viewBox="0 0 395.52 58.82547797428111" height="58.82547797428111" width="395.52"><g><svg viewBox="0 0 467.40914995574553 69.51751278241092" height="58.82547797428111" width="395.52"><g transform="matrix(1,0,0,1,71.88914995574558,9.607702562547388)"><svg viewBox="0 0 395.52 50.30210765731614" height="50.30210765731614" width="395.52"><g id="textblocktransform"><svg viewBox="0 0 395.52 50.30210765731614" height="50.30210765731614" width="395.52" id="textblock"><g><svg viewBox="0 0 395.52 50.30210765731614" height="50.30210765731614" width="395.52"><g transform="matrix(1,0,0,1,0,0)"><svg width="395.52" viewBox="0.699999988079071 -33.150001525878906 263.7699890136719 33.55000305175781" height="50.30210765731614" data-palette-color="#001f3f"><path d="M17.1-32.05L27.8 0 23.7 0 22.95-3.2 21.15-8.7 13.95-8.85 7.45-8.7 5.5-3.4 4.7 0 0.7 0 12.45-32.05 17.1-32.05ZM14.3-12L20.05-12.1 14.85-27.9 14.5-27.9 8.7-12.1 14.3-12ZM37.65-32.05L37.4-10 37.6 0 33.55 0 33.8-9.65 33.55-32.05 37.65-32.05ZM68.04-32.3Q73.09-32.3 77.44-30.05L77.44-30.05 76.64-26.25 76.14-26.15Q73.74-27.65 71.72-28.3 69.69-28.95 67.44-28.95L67.44-28.95Q56.59-28.95 56.59-15.55L56.59-15.55Q56.59-9.1 59.12-6.08 61.64-3.05 66.94-3.05L66.94-3.05Q68.34-3.05 69.77-3.3 71.19-3.55 73.44-4.25L73.44-4.25 73.54-8 73.49-12.8 77.24-13.1 77.14-8.55 77.34-1.55Q74.09-0.55 71.59-0.1 69.09 0.35 66.74 0.35L66.74 0.35Q59.59 0.35 56.02-3.7 52.44-7.75 52.44-15.4L52.44-15.4Q52.44-23.65 56.49-27.98 60.54-32.3 68.04-32.3L68.04-32.3ZM99.69-11.65L85.34-11.6 85.34-11.5Q85.34-7.3 87.24-5.05 89.14-2.8 92.64-2.8L92.64-2.8Q94.39-2.8 96.14-3.38 97.89-3.95 99.34-5L99.34-5 99.74-4.7 99.14-1.3Q95.64 0.4 92.14 0.4L92.14 0.4Q87.24 0.4 84.44-2.73 81.64-5.85 81.64-11.3L81.64-11.3Q81.64-16.8 84.44-20.05 87.24-23.3 91.99-23.3L91.99-23.3Q95.99-23.3 98.19-21.03 100.39-18.75 100.39-14.7L100.39-14.7Q100.39-13.35 100.19-12.15L100.19-12.15 99.69-11.65ZM91.99-20.5Q89.49-20.5 87.82-18.88 86.14-17.25 85.59-14.3L85.59-14.3 96.64-14.5 96.74-15.2Q96.74-17.75 95.52-19.13 94.29-20.5 91.99-20.5L91.99-20.5ZM120.79 0L121.04-15.55Q121.09-17.6 120.09-18.75 119.09-19.9 117.14-19.9L117.14-19.9Q113.99-19.9 110.34-16.35L110.34-16.35 110.34-10.05 110.54 0 106.59 0 106.84-9.7 106.64-22.65 110.39-23 110.39-19.65 110.69-19.65Q113.79-22.4 117.04-23.2L117.04-23.2Q120.79-23.2 122.76-21.45 124.74-19.7 124.69-16.45L124.69-16.45 124.59-9.95 124.79 0 120.79 0ZM148.54-11.65L134.19-11.6 134.19-11.5Q134.19-7.3 136.09-5.05 137.99-2.8 141.49-2.8L141.49-2.8Q143.24-2.8 144.99-3.38 146.74-3.95 148.19-5L148.19-5 148.59-4.7 147.99-1.3Q144.49 0.4 140.99 0.4L140.99 0.4Q136.09 0.4 133.29-2.73 130.49-5.85 130.49-11.3L130.49-11.3Q130.49-16.8 133.29-20.05 136.09-23.3 140.84-23.3L140.84-23.3Q144.84-23.3 147.04-21.03 149.24-18.75 149.24-14.7L149.24-14.7Q149.24-13.35 149.04-12.15L149.04-12.15 148.54-11.65ZM140.84-20.5Q138.34-20.5 136.66-18.88 134.99-17.25 134.44-14.3L134.44-14.3 145.49-14.5 145.59-15.2Q145.59-17.75 144.36-19.13 143.14-20.5 140.84-20.5L140.84-20.5ZM165.93-22.95Q166.53-22.95 167.23-22.85L167.23-22.85 167.23-19 166.78-18.85Q165.93-19.1 164.93-19.1L164.93-19.1Q163.28-19.1 161.91-17.78 160.53-16.45 159.18-13.55L159.18-13.55 159.13-10.05 159.38 0 155.43 0 155.68-9.7 155.48-22.65 159.23-23 159.18-18.3 159.48-18.3Q160.88-20.8 162.58-21.88 164.28-22.95 165.93-22.95L165.93-22.95ZM178.63-23.3Q181.88-23.3 183.76-21.7 185.63-20.1 185.63-17.3L185.63-17.3Q185.63-16.45 185.33-11.15L185.33-11.15Q185.03-5.85 185.03-4.95L185.03-4.95Q185.03-3.85 185.38-3.43 185.73-3 186.58-3L186.58-3Q187.33-3 188.28-3.3L188.28-3.3 188.68-2.95 188.28-0.7Q186.83 0.15 185.43 0.3L185.43 0.3Q183.88 0.15 182.96-0.8 182.03-1.75 181.98-3.4L181.98-3.4 181.63-3.4Q178.93-0.65 176.28 0.35L176.28 0.35Q172.93 0.35 171.06-1.33 169.18-3 169.18-5.9L169.18-5.9Q169.18-8.1 170.36-9.4 171.53-10.7 173.83-11.25L173.83-11.25 181.93-13.15 181.98-16.4Q181.98-18.35 180.96-19.4 179.93-20.45 178.03-20.45L178.03-20.45Q176.33-20.45 174.63-19.65 172.93-18.85 170.98-17.15L170.98-17.15 170.58-17.35 170.08-20.2Q174.23-23.3 178.63-23.3L178.63-23.3ZM181.88-10.6L174.63-8.85Q173.63-8.55 173.18-8.03 172.73-7.5 172.73-6.45L172.73-6.45Q172.73-4.8 173.66-3.88 174.58-2.95 176.13-2.95L176.13-2.95Q178.88-2.95 181.73-6.5L181.73-6.5 181.88-10.6ZM201.38-3.05Q203.03-3.05 204.98-4.05L204.98-4.05 205.43-3.75 205.03-1.15Q202.33 0.1 200.03 0.3L200.03 0.3Q197.18-0.25 195.93-1.8 194.68-3.35 194.68-6.3L194.68-6.3 194.83-9.85 194.78-20.2 191.63-20.2 191.43-20.5 191.68-22.85 194.73-22.85 194.73-26.55 198.18-28.05 198.58-27.7 198.48-22.85 205.28-22.85 205.48-22.55 205.23-20.2 198.48-20.2 198.23-6.65Q198.18-4.65 198.93-3.85 199.68-3.05 201.38-3.05L201.38-3.05ZM210.18 0L210.38-9.7 210.23-22.65 214.08-23 213.98-10.05 214.08 0 210.18 0ZM212.23-33.15Q213.23-33.15 213.83-32.55 214.43-31.95 214.43-30.9L214.43-30.9Q214.43-29.8 213.8-29.15 213.18-28.5 212.08-28.5L212.08-28.5Q211.03-28.5 210.45-29.1 209.88-29.7 209.88-30.8L209.88-30.8Q209.88-31.85 210.5-32.5 211.13-33.15 212.23-33.15L212.23-33.15ZM230.77-23.3Q235.42-23.3 238-20.28 240.57-17.25 240.57-11.75L240.57-11.75Q240.57-5.95 237.87-2.78 235.17 0.4 230.17 0.4L230.17 0.4Q225.47 0.4 222.9-2.63 220.32-5.65 220.32-11.15L220.32-11.15Q220.32-16.95 223.05-20.13 225.77-23.3 230.77-23.3L230.77-23.3ZM230.52-20.5Q227.37-20.5 225.72-18.35 224.07-16.2 224.07-12.05L224.07-12.05Q224.07-7.25 225.7-4.85 227.32-2.45 230.42-2.45L230.42-2.45Q233.57-2.45 235.22-4.55 236.87-6.65 236.87-10.85L236.87-10.85Q236.87-15.6 235.25-18.05 233.62-20.5 230.52-20.5L230.52-20.5ZM260.47 0L260.72-15.55Q260.77-17.6 259.77-18.75 258.77-19.9 256.82-19.9L256.82-19.9Q253.67-19.9 250.02-16.35L250.02-16.35 250.02-10.05 250.22 0 246.27 0 246.52-9.7 246.32-22.65 250.07-23 250.07-19.65 250.37-19.65Q253.47-22.4 256.72-23.2L256.72-23.2Q260.47-23.2 262.45-21.45 264.42-19.7 264.37-16.45L264.37-16.45 264.27-9.95 264.47 0 260.47 0Z" opacity="1" transform="matrix(1,0,0,1,0,0)" fill="#001f3f" class="wordmark-text-0" data-fill-palette-color="primary" id="text-0"></path></svg></g></svg></g></svg></g></svg></g><g><svg viewBox="0 0 60.01402958843702 69.51751278241092" height="69.51751278241092" width="60.01402958843702"><g><svg xmlns="http://www.w3.org/2000/svg" xmlns:xlink="http://www.w3.org/1999/xlink" version="1.1" x="0" y="0" viewBox="9.63800048828125 3.246999979019165 80.7239990234375 93.50699615478516" enable-background="new 0 0 100 100" xml:space="preserve" height="69.51751278241092" width="60.01402958843702" class="icon-icon-0" data-fill-palette-color="accent" id="icon-0"><g fill="#7fdbff" data-fill-palette-color="accent"><g fill="#7fdbff" data-fill-palette-color="accent"><polygon points="36.703,11.011 9.638,26.636 9.638,38.757 36.703,23.131 63.767,38.757 63.767,26.636   " fill="#7fdbff" data-fill-palette-color="accent"></polygon></g><g fill="#7fdbff" data-fill-palette-color="accent"><polygon points="63.298,89.092 36.233,73.467 36.233,61.348 63.298,76.973 90.362,61.348 90.362,73.467   " fill="#7fdbff" data-fill-palette-color="accent"></polygon></g><g fill="#7fdbff" data-fill-palette-color="accent"><polygon points="9.638,42.012 36.703,26.386 47.198,32.446 20.134,48.072 20.134,79.324 9.638,73.264   " fill="#7fdbff" data-fill-palette-color="accent"></polygon></g><g fill="#7fdbff" data-fill-palette-color="accent"><polygon points="77.083,18.872 50.018,3.247 39.522,9.307 66.586,24.932 66.586,56.184 77.083,50.124   " fill="#7fdbff" data-fill-palette-color="accent"></polygon></g><g fill="#7fdbff" data-fill-palette-color="accent"><polygon points="23.01,81.127 23.011,49.876 33.507,43.816 33.507,75.068 60.571,90.693 50.075,96.754   " fill="#7fdbff" data-fill-palette-color="accent"></polygon></g><g fill="#7fdbff" data-fill-palette-color="accent"><polygon points="90.362,58.092 90.362,26.84 79.866,20.78 79.866,52.031 52.802,67.658 63.298,73.719   " fill="#7fdbff" data-fill-palette-color="accent"></polygon></g></g></svg></g></svg></g></svg></g><defs></defs></svg><rect width="395.52" height="58.82547797428111" fill="none" stroke="none" visibility="hidden"></rect></g></svg></g></svg>